<?xml version="1.0" encoding="utf-8"?>
<!-- Generator: Adobe Illustrator 16.0.1, SVG Export Plug-In . SVG Version: 6.00 Build 0)  -->
<!DOCTYPE svg PUBLIC "-//W3C//DTD SVG 1.1//EN" "http://www.w3.org/Graphics/SVG/1.1/DTD/svg11.dtd">
<svg version="1.1" id="Layer_1" xmlns="http://www.w3.org/2000/svg" xmlns:xlink="http://www.w3.org/1999/xlink" x="0px" y="0px"
	 width="612px" height="792px" viewBox="0 0 612 792" enable-background="new 0 0 612 792" xml:space="preserve">
<polygon fill="#8C8C8C" points="322.648,432.497 323.91,432.249 324.363,431.589 324.537,430.753 323.422,430.579 323.283,430.335 
	323.422,429.812 323.457,428.037 324.084,427.828 324.956,426.992 325.13,425.492 325.583,424.379 326.175,423.785 327.221,423.264 
	327.709,422.846 327.744,422.148 327.43,421.975 327.186,421.663 326.803,419.884 325.966,418.389 326.143,417.391 325.374,416.402 
	320.95,409.468 315.027,400.619 308.094,390.307 304.321,384.643 304.819,382.641 306.945,374.734 309.418,365.154 305.307,364.038 
	301.197,362.993 297.364,361.74 295.064,361.112 291.581,360.206 289.431,359.47 288.95,360.91 288.9,363.175 287.323,366.774 
	286.387,367.561 286.288,367.906 285.746,368.153 285.303,369.434 285.057,370.418 285.895,371.699 286.388,372.978 
	286.732,374.063 286.634,376.034 286.092,376.971 285.895,378.744 285.599,379.878 286.141,381.06 286.978,382.44 287.668,383.919 
	288.062,385.15 287.965,386.134 287.865,386.282 287.865,386.922 289.589,388.845 289.442,389.582 289.244,390.272 289.047,390.863 
	289.096,393.376 289.737,394.509 290.328,395.298 291.165,395.445 291.461,396.283 291.116,397.367 290.476,397.859 
	290.131,397.859 289.884,399.043 290.032,399.93 291.017,401.258 291.51,402.884 291.954,404.314 292.348,405.251 293.383,407.025 
	293.826,407.812 293.974,408.7 294.466,408.997 294.466,409.734 294.22,410.327 293.678,412.495 293.53,413.085 294.27,413.923 
	295.551,414.07 296.931,414.611 298.113,415.253 299.001,415.253 299.887,416.189 300.676,417.668 301.021,418.357 302.203,418.998 
	303.681,419.244 304.124,419.885 304.322,420.871 303.878,421.068 303.976,421.363 304.961,421.609 305.799,421.66 306.685,423.088 
	307.869,424.369 308.116,425.059 308.902,426.339 309.002,427.323 309.002,430.182 309.15,430.723 312.204,431.166 318.216,432.004 
	"/>
</svg>
